<?xml version="1.0" encoding="utf-8"?>
<!-- Generator: Adobe Illustrator 21.0.0, SVG Export Plug-In . SVG Version: 6.00 Build 0)  -->
<svg version="1.1" id="Calque_1" xmlns="http://www.w3.org/2000/svg" xmlns:xlink="http://www.w3.org/1999/xlink" x="0px" y="0px"
	 viewBox="0 0 179.7 166.5" style="enable-background:new 0 0 179.7 166.5;" xml:space="preserve">
<style type="text/css">
	.st0{fill:#FFFFFF;}
</style>
<g id="Calque_2">
</g>
<g>
	<path class="st0" d="M38.7,65.8h-2.2V36.1c0-4.4-1-7.7-2.9-9.9c-1.9-2.2-5-3.2-9.2-3.2c-4.8,0-8.8,2.1-11.9,6.4
		c-1.8,2.6-3,5.4-3.6,8.5v27.9H6.6V21.6h2.2v10.5c1.5-3.6,3.6-6.4,6.4-8.3c2.8-2,5.9-2.9,9.2-2.9c3.7,0,6.7,0.8,9.1,2.5
		c2.4,1.6,3.9,4.3,4.6,8c1.3-3.2,3.4-5.7,6.4-7.6c2.9-1.9,6.2-2.8,9.9-2.8c4.8,0,8.3,1.3,10.6,4c2.3,2.7,3.5,6.7,3.5,12.1v28.9h-2.2
		V37.2c0-4.8-1-8.4-2.9-10.8c-1.9-2.3-5-3.5-9.2-3.4c-5.4,0.1-9.6,2.2-12.8,6.4c-1.8,2.4-2.8,4.8-2.9,7V65.8z"/>
	<path class="st0" d="M81.4,7.8c0-0.6,0.2-1.2,0.7-1.6c0.4-0.4,1-0.7,1.6-0.7c0.6,0,1.2,0.2,1.6,0.7c0.4,0.4,0.7,1,0.7,1.6
		c0,0.6-0.2,1.2-0.7,1.6c-0.4,0.4-1,0.7-1.6,0.7c-0.6,0-1.2-0.2-1.6-0.7C81.7,9,81.4,8.4,81.4,7.8z M84.8,65.8h-2.2V21.6h2.2V65.8z"
		/>
	<path class="st0" d="M101.5,31.9c1.4-3.4,3.6-6.1,6.4-8.1c2.8-2,5.9-3,9.3-3c4.7,0,8.3,1.3,10.6,4c2.3,2.7,3.5,6.7,3.5,12.2v28.9
		h-2.2V36.9c0-4.7-1-8.2-2.9-10.5c-1.9-2.3-4.9-3.4-9.1-3.4c-3.8,0-7.1,1.4-9.9,4.1c-2.8,2.7-4.7,6.2-5.7,10.5v28.3h-2.2V21.6h2.2
		V31.9z"/>
	<path class="st0" d="M172.6,68H138v-2.2h34.6V68z"/>
	<path class="st0" d="M57.8,110.7c0,9-2.1,16.3-6.2,21.8c-4.1,5.5-9.7,8.3-16.8,8.3c-7.2,0-12.9-2.3-17-6.9v28.6H7.7V80.4h9.3
		l0.5,6.6c4.1-5.1,9.9-7.7,17.2-7.7c7.1,0,12.8,2.7,16.9,8.1c4.1,5.4,6.2,12.8,6.2,22.4V110.7z M47.6,109.5c0-6.7-1.4-12-4.3-15.8
		c-2.9-3.9-6.8-5.8-11.7-5.8c-6.1,0-10.7,2.7-13.8,8.2v28.3c3,5.4,7.7,8.1,13.9,8.1c4.9,0,8.7-1.9,11.6-5.8
		C46.2,122.9,47.6,117.1,47.6,109.5z"/>
	<path class="st0" d="M110,125.7l11.4-45.3h10.1l-17.3,59.3h-8.2L91.7,94.7l-14,44.9h-8.2L52.2,80.4h10.1L74,124.8l13.8-44.4h8.2
		L110,125.7z"/>
	<path class="st0" d="M165.4,139.7c-0.6-1.2-1.1-3.3-1.4-6.2c-4.7,4.9-10.3,7.3-16.9,7.3c-5.8,0-10.6-1.7-14.4-5
		c-3.7-3.3-5.6-7.5-5.6-12.6c0-6.2,2.3-11,7-14.4c4.7-3.4,11.3-5.1,19.8-5.1h9.9v-4.7c0-3.5-1.1-6.4-3.2-8.5
		c-2.1-2.1-5.2-3.2-9.4-3.2c-3.6,0-6.7,0.9-9.1,2.7c-2.4,1.8-3.7,4-3.7,6.6h-10.2c0-3,1.1-5.8,3.2-8.6c2.1-2.8,5-4.9,8.6-6.5
		c3.6-1.6,7.6-2.4,11.9-2.4c6.8,0,12.2,1.7,16.1,5.1c3.9,3.4,5.9,8.1,6,14.1v27.3c0,5.4,0.7,9.8,2.1,13v0.9H165.4z M148.5,132
		c3.2,0,6.2-0.8,9-2.5c2.8-1.6,4.9-3.8,6.2-6.4v-12.2h-7.9c-12.4,0-18.6,3.6-18.6,10.9c0,3.2,1.1,5.7,3.2,7.5
		C142.5,131.1,145.2,132,148.5,132z"/>
</g>
</svg>
