<?xml version="1.0" encoding="utf-8"?>
<!-- Generator: Adobe Illustrator 21.0.0, SVG Export Plug-In . SVG Version: 6.00 Build 0)  -->
<svg version="1.1" id="Calque_1" xmlns="http://www.w3.org/2000/svg" xmlns:xlink="http://www.w3.org/1999/xlink" x="0px" y="0px"
	 viewBox="0 0 627 164.4" style="enable-background:new 0 0 627 164.4;" xml:space="preserve">
<style type="text/css">
	.st0{fill:#2D2B2B;}
	.st1{opacity:0.25;fill:#2D2B2B;}
</style>
<g id="Calque_2">
</g>
<g>
	<path class="st0" d="M68.5,120.9h-3.9V68.2c0-7.9-1.8-13.7-5.2-17.6c-3.4-3.8-8.8-5.8-16.3-5.8c-8.6,0-15.6,3.8-21.1,11.4
		c-3.2,4.5-5.4,9.6-6.4,15.1v49.5h-4V42.5h4V61c2.7-6.4,6.4-11.3,11.4-14.8c4.9-3.5,10.4-5.2,16.4-5.2c6.6,0,11.9,1.4,16.1,4.3
		c4.2,2.9,6.9,7.6,8.2,14.2c2.3-5.7,6.1-10.2,11.3-13.5c5.2-3.4,11.1-5,17.5-5c8.5,0,14.7,2.4,18.9,7.2s6.2,12,6.3,21.5v51.1h-3.9
		V70c0-8.6-1.7-14.9-5.2-19.1c-3.5-4.1-8.9-6.1-16.3-6c-9.5,0.1-17,3.9-22.6,11.4c-3.2,4.3-4.9,8.4-5.2,12.4V120.9z"/>
	<path class="st0" d="M144.4,18c0-1.1,0.4-2.1,1.2-2.9c0.8-0.8,1.7-1.2,2.8-1.2c1.1,0,2.1,0.4,2.9,1.2s1.2,1.8,1.2,2.9
		c0,1.1-0.4,2.1-1.2,2.8c-0.8,0.8-1.8,1.2-2.9,1.2c-1.1,0-2.1-0.4-2.8-1.2C144.8,20,144.4,19.1,144.4,18z M150.3,120.9h-3.9V42.5
		h3.9V120.9z"/>
	<path class="st0" d="M180,60.7c2.6-6.1,6.3-10.9,11.3-14.4c5-3.5,10.5-5.3,16.5-5.3c8.4,0,14.6,2.4,18.7,7.1
		c4.1,4.8,6.1,11.9,6.2,21.6v51.1h-3.9V69.6c0-8.4-1.8-14.6-5.1-18.6c-3.4-4-8.7-6-16.1-6c-6.8,0-12.6,2.4-17.6,7.2
		c-5,4.8-8.3,11-10,18.6v50.2H176V42.5h3.9V60.7z"/>
	<path class="st0" d="M306,124.8h-61.3v-3.9H306V124.8z"/>
	<path class="st0" d="M408.4,69.4c0,16-3.7,28.9-11,38.7c-7.3,9.8-17.2,14.7-29.7,14.7c-12.8,0-22.8-4-30.1-12.1v50.6h-18V15.7H336
		l0.9,11.7c7.3-9.1,17.5-13.6,30.5-13.6c12.6,0,22.6,4.8,30,14.3c7.4,9.5,11,22.8,11,39.7V69.4z M390.4,67.4
		c0-11.9-2.5-21.2-7.6-28.1c-5.1-6.9-12-10.3-20.8-10.3c-10.9,0-19,4.8-24.5,14.5v50.2c5.4,9.6,13.6,14.4,24.7,14.4
		c8.6,0,15.5-3.4,20.6-10.3C387.9,91,390.4,80.9,390.4,67.4z"/>
	<path class="st0" d="M501.1,96.1l20.2-80.4h18l-30.6,105.1h-14.6l-25.6-79.7l-24.9,79.7h-14.6L398.5,15.7h17.9l20.7,78.7l24.5-78.7
		h14.5L501.1,96.1z"/>
	<path class="st0" d="M599.1,120.9c-1-2.1-1.9-5.8-2.5-11.1c-8.4,8.7-18.3,13-29.9,13c-10.4,0-18.9-2.9-25.5-8.8
		c-6.6-5.9-10-13.3-10-22.3c0-10.9,4.2-19.4,12.5-25.5c8.3-6.1,20-9.1,35.1-9.1h17.5v-8.3c0-6.3-1.9-11.3-5.6-15
		c-3.8-3.7-9.3-5.6-16.6-5.6c-6.4,0-11.8,1.6-16.1,4.9c-4.3,3.2-6.5,7.2-6.5,11.8h-18.1c0-5.2,1.9-10.3,5.6-15.2
		c3.7-4.9,8.8-8.8,15.2-11.6c6.4-2.8,13.4-4.3,21-4.3c12.1,0,21.6,3,28.5,9.1c6.9,6.1,10.4,14.4,10.7,25v48.4c0,9.7,1.2,17.3,3.7,23
		v1.6H599.1z M569.3,107.2c5.6,0,11-1.5,16-4.4s8.7-6.7,11-11.4V69.8h-14.1c-22,0-33,6.4-33,19.3c0,5.6,1.9,10,5.6,13.2
		C558.6,105.6,563.4,107.2,569.3,107.2z"/>
</g>
<path class="st1" d="M613.3,134.5H13.7c-7.6,0-13.7-6.1-13.7-13.7v-107C0,6.1,6.1,0,13.7,0h599.5c7.6,0,13.7,6.1,13.7,13.7v107
	C627,128.3,620.9,134.5,613.3,134.5z"/>
</svg>
